<svg width="90" height="75" viewBox="0 0 90 75" fill="none" xmlns="http://www.w3.org/2000/svg">
<path d="M44.57 74C44.378 73.9988 44.1892 73.9507 44.02 73.86L1.61002 51.44C1.34467 51.3045 1.14161 51.0721 1.04294 50.791C0.94427 50.5099 0.957548 50.2016 1.08002 49.93L19.48 7.76C19.5481 7.61199 19.6451 7.47911 19.7653 7.36919C19.8855 7.25927 20.0265 7.17454 20.18 7.12C20.3331 7.06644 20.4956 7.04502 20.6573 7.05706C20.819 7.0691 20.9766 7.11436 21.12 7.19L63.53 29.59C63.7903 29.7308 63.9888 29.9634 64.0868 30.2426C64.1847 30.5218 64.1752 30.8275 64.06 31.1L45.65 73.27C45.5851 73.4183 45.4903 73.5517 45.3716 73.6618C45.2529 73.7719 45.1128 73.8564 44.96 73.91C44.8374 73.966 44.7048 73.9966 44.57 74ZM3.68002 49.87L44 71.16L61.46 31.16L21.14 9.87L3.68002 49.87Z" fill="white" stroke="white" stroke-miterlimit="10"/>
<path d="M63 31.81C62.7355 31.8091 62.479 31.7201 62.2707 31.5571C62.0625 31.3941 61.9144 31.1665 61.85 30.91C61.8128 30.7596 61.8059 30.6033 61.8296 30.4502C61.8534 30.2971 61.9073 30.1502 61.9882 30.0181C62.0691 29.886 62.1755 29.7713 62.3011 29.6807C62.4267 29.59 62.5691 29.5252 62.72 29.49L84.15 24.21L44.75 3.40999L20.75 9.31999C20.4465 9.39283 20.1265 9.3435 19.859 9.18263C19.5915 9.02176 19.3979 8.76223 19.32 8.45998C19.2779 8.30828 19.2666 8.1497 19.2867 7.99356C19.3069 7.83742 19.3581 7.68689 19.4373 7.55084C19.5165 7.41479 19.6221 7.29596 19.748 7.20135C19.8738 7.10675 20.0173 7.03828 20.17 6.99999L44.62 0.999986C44.9006 0.931059 45.197 0.970331 45.45 1.10999L88 23.57C88.2129 23.6808 88.3866 23.8544 88.4975 24.0673C88.6084 24.2801 88.6512 24.522 88.62 24.76C88.5904 24.9972 88.4894 25.2198 88.3305 25.3984C88.1716 25.577 87.9622 25.7031 87.73 25.76L63.29 31.76C63.1967 31.7924 63.0987 31.8093 63 31.81Z" fill="white" stroke="white" stroke-miterlimit="10"/>
<path d="M44.57 74C44.3138 73.9988 44.065 73.9142 43.8612 73.759C43.6573 73.6039 43.5095 73.3866 43.44 73.14C43.3974 72.9916 43.3845 72.8363 43.4022 72.6829C43.4199 72.5295 43.4678 72.3811 43.5431 72.2463C43.6184 72.1116 43.7196 71.993 43.841 71.8975C43.9623 71.802 44.1013 71.7315 44.25 71.69L64.25 66.05L86.41 24.05C86.5583 23.7766 86.8085 23.5728 87.1063 23.4829C87.404 23.393 87.7252 23.4243 88 23.57C88.1372 23.6416 88.2588 23.7397 88.3579 23.8586C88.4569 23.9775 88.5313 24.1149 88.5769 24.2627C88.6225 24.4106 88.6383 24.5661 88.6233 24.7201C88.6084 24.8741 88.5631 25.0236 88.49 25.16L66.07 67.58C65.9936 67.7209 65.8896 67.8448 65.7642 67.9445C65.6387 68.0441 65.4945 68.1175 65.34 68.16L44.89 73.93C44.7873 73.9688 44.6795 73.9923 44.57 74Z" fill="white" stroke="white" stroke-miterlimit="10"/>
<path d="M45.6553 13.3856C46.3046 12.1546 45.833 10.6303 44.602 9.98099C43.371 9.33168 41.8467 9.80324 41.1974 11.0342C40.5481 12.2653 41.0197 13.7896 42.2507 14.4389C43.4817 15.0882 45.006 14.6166 45.6553 13.3856Z" fill="white" stroke="white" stroke-miterlimit="10"/>
<path d="M43.43 15.91H43.37C42.3904 15.8916 41.4581 15.4854 40.7776 14.7805C40.0971 14.0756 39.7239 13.1296 39.74 12.15C39.7478 11.6654 39.851 11.1871 40.0437 10.7424C40.2364 10.2977 40.5148 9.89529 40.8631 9.5582C41.2113 9.22111 41.6225 8.95593 42.0733 8.77779C42.524 8.59965 43.0054 8.51205 43.49 8.52C44.4367 8.57637 45.3257 8.99415 45.9733 9.68706C46.6209 10.38 46.9776 11.2951 46.9699 12.2435C46.9622 13.1919 46.5907 14.1011 45.9319 14.7834C45.2731 15.4657 44.3775 15.869 43.43 15.91ZM43.43 13.55C43.7803 13.5501 44.1166 13.413 44.3671 13.1682C44.6175 12.9233 44.7622 12.5902 44.77 12.24C44.777 12.0563 44.7469 11.8732 44.6816 11.7014C44.6164 11.5296 44.5172 11.3727 44.39 11.24C44.2677 11.1142 44.1217 11.0141 43.9603 10.9454C43.7989 10.8767 43.6254 10.8409 43.45 10.84C43.2666 10.8268 43.0825 10.853 42.91 10.9168C42.7375 10.9807 42.5807 11.0806 42.45 11.21C42.2605 11.3945 42.1298 11.6309 42.0744 11.8895C42.019 12.1481 42.0413 12.4173 42.1386 12.6632C42.2359 12.9091 42.4038 13.1208 42.6212 13.2714C42.8385 13.4221 43.0956 13.5051 43.36 13.51L43.43 13.55Z" fill="white" stroke="white" stroke-miterlimit="10"/>
<path d="M64 51.34C63.5013 51.332 63.0161 51.1761 62.606 50.8922C62.1959 50.6083 61.8793 50.209 61.6963 49.745C61.5132 49.281 61.472 48.7731 61.5778 48.2857C61.6837 47.7982 61.9318 47.3532 62.2907 47.0068C62.6497 46.6605 63.1034 46.4285 63.5943 46.3401C64.0852 46.2518 64.5913 46.3112 65.0484 46.5107C65.5056 46.7102 65.8933 47.0409 66.1623 47.4609C66.4314 47.8809 66.5698 48.3713 66.56 48.87C66.5548 49.2005 66.4844 49.5267 66.3528 49.8299C66.2212 50.1331 66.031 50.4073 65.7931 50.6368C65.5552 50.8663 65.2744 51.0466 64.9667 51.1672C64.659 51.2879 64.3305 51.3466 64 51.34Z" fill="white" stroke="white" stroke-miterlimit="10"/>
<path d="M64 52.52H63.94C63.4536 52.5118 62.9736 52.4078 62.5275 52.2139C62.0813 52.02 61.6778 51.74 61.34 51.39C60.6642 50.6836 60.2946 49.739 60.3114 48.7615C60.3283 47.784 60.7303 46.8527 61.43 46.17C61.9547 45.6604 62.619 45.3183 63.3385 45.1871C64.0581 45.0558 64.8004 45.1414 65.4712 45.4328C66.142 45.7243 66.7111 46.2086 67.1062 46.8241C67.5012 47.4397 67.7044 48.1587 67.69 48.89C67.6868 49.3748 67.586 49.854 67.3935 50.299C67.2011 50.744 66.921 51.1456 66.57 51.48C65.8817 52.1485 64.9595 52.5216 64 52.52ZM64 47.52C63.8275 47.5185 63.6565 47.5513 63.4968 47.6165C63.3371 47.6818 63.1921 47.7781 63.07 47.9C62.9451 48.0237 62.846 48.1709 62.7784 48.3331C62.7107 48.4953 62.6759 48.6693 62.6759 48.845C62.6759 49.0207 62.7107 49.1947 62.7784 49.357C62.846 49.5192 62.9451 49.6663 63.07 49.79C63.1922 49.9158 63.3383 50.0159 63.4997 50.0846C63.6611 50.1533 63.8346 50.1891 64.01 50.19C64.1938 50.2081 64.3793 50.1841 64.5526 50.12C64.7258 50.0559 64.8822 49.9533 65.01 49.82C65.1995 49.6355 65.3302 49.3991 65.3856 49.1405C65.441 48.8819 65.4187 48.6127 65.3214 48.3668C65.2241 48.1209 65.0562 47.9092 64.8388 47.7586C64.6215 47.6079 64.3644 47.5249 64.1 47.52H64Z" fill="white" stroke="white" stroke-miterlimit="10"/>
<path d="M57.1 63.33C56.6013 63.322 56.1161 63.1662 55.706 62.8822C55.2959 62.5983 54.9793 62.199 54.7963 61.735C54.6132 61.271 54.572 60.7631 54.6779 60.2757C54.7837 59.7883 55.0318 59.3432 55.3907 58.9968C55.7497 58.6505 56.2034 58.4185 56.6943 58.3302C57.1852 58.2418 57.6913 58.3012 58.1484 58.5007C58.6056 58.7002 58.9933 59.0309 59.2624 59.4509C59.5314 59.8709 59.6698 60.3613 59.66 60.86C59.6469 61.5266 59.3701 62.1609 58.8902 62.6238C58.4104 63.0868 57.7667 63.3407 57.1 63.33Z" fill="white" stroke="white" stroke-miterlimit="10"/>
<path d="M57.15 64.51H57.08C56.2207 64.488 55.3958 64.1684 54.7461 63.6056C54.0963 63.0429 53.6622 62.2721 53.5177 61.4248C53.3732 60.5775 53.5274 59.7063 53.954 58.9601C54.3805 58.2139 55.053 57.6389 55.8564 57.3334C56.6598 57.028 57.5443 57.0109 58.3589 57.2852C59.1735 57.5595 59.8676 58.1082 60.3225 58.8374C60.7775 59.5666 60.9652 60.4312 60.8534 61.2834C60.7417 62.1357 60.3375 62.9227 59.71 63.51C59.019 64.1632 58.1008 64.5219 57.15 64.51ZM57.15 62.15C57.3251 62.1555 57.4995 62.1256 57.6628 62.062C57.826 61.9984 57.9747 61.9025 58.1 61.78C58.228 61.6589 58.3303 61.5133 58.4008 61.3518C58.4712 61.1903 58.5084 61.0162 58.51 60.84C58.5159 60.5746 58.4429 60.3135 58.3002 60.0897C58.1574 59.8659 57.9515 59.6895 57.7084 59.5829C57.4653 59.4763 57.196 59.4444 56.9347 59.491C56.6734 59.5377 56.4319 59.6609 56.2407 59.8451C56.0495 60.0292 55.9174 60.266 55.8609 60.5253C55.8045 60.7847 55.8264 61.055 55.9238 61.3019C56.0212 61.5488 56.1897 61.7612 56.4081 61.9122C56.6264 62.0632 56.8846 62.146 57.15 62.15Z" fill="white" stroke="white" stroke-miterlimit="10"/>
<path d="M71 39.9C70.5013 39.892 70.0161 39.7361 69.606 39.4522C69.1959 39.1683 68.8793 38.769 68.6963 38.305C68.5132 37.841 68.472 37.3331 68.5778 36.8457C68.6837 36.3582 68.9318 35.9132 69.2907 35.5668C69.6497 35.2205 70.1034 34.9885 70.5943 34.9001C71.0852 34.8118 71.5913 34.8712 72.0484 35.0707C72.5056 35.2702 72.8933 35.6009 73.1623 36.0209C73.4314 36.4409 73.5698 36.9313 73.56 37.43C73.5548 37.7605 73.4844 38.0867 73.3528 38.3899C73.2212 38.6931 73.031 38.9673 72.7931 39.1968C72.5552 39.4263 72.2744 39.6066 71.9667 39.7272C71.659 39.8479 71.3305 39.9066 71 39.9Z" fill="white" stroke="white" stroke-miterlimit="10"/>
<path d="M71 41.08C70.0521 41.0169 69.1649 40.5916 68.522 39.8922C67.8791 39.1928 67.5298 38.2729 67.5465 37.3231C67.5632 36.3733 67.9446 35.4663 68.6117 34.7899C69.2788 34.1136 70.1805 33.7198 71.13 33.69C72.0779 33.7531 72.9652 34.1785 73.608 34.8778C74.2509 35.5772 74.6002 36.4971 74.5835 37.4469C74.5668 38.3967 74.1854 39.3037 73.5183 39.9801C72.8512 40.6564 71.9495 41.0502 71 41.08ZM71 38.72C71.1755 38.7292 71.351 38.7009 71.5148 38.6372C71.6786 38.5734 71.8269 38.4755 71.95 38.35C72.079 38.2297 72.1819 38.0842 72.2524 37.9225C72.323 37.7608 72.3596 37.5864 72.36 37.41C72.3644 37.235 72.334 37.0609 72.2704 36.8978C72.2069 36.7347 72.1116 36.5859 71.99 36.46C71.8683 36.3329 71.7225 36.2311 71.5611 36.1608C71.3998 36.0904 71.226 36.0527 71.05 36.05C70.6978 36.0498 70.3593 36.1862 70.1056 36.4305C69.8519 36.6748 69.703 37.008 69.69 37.36C69.6847 37.7137 69.8194 38.0552 70.0648 38.31C70.3102 38.5647 70.6464 38.7121 71 38.72Z" fill="white" stroke="white" stroke-miterlimit="10"/>
<path d="M67.45 24.59C66.9508 24.5839 66.4647 24.4298 66.0532 24.147C65.6418 23.8643 65.3236 23.4657 65.139 23.0018C64.9545 22.5379 64.9119 22.0297 65.0166 21.5416C65.1213 21.0535 65.3686 20.6074 65.7272 20.2601C66.0858 19.9128 66.5395 19.6798 67.0307 19.5906C67.5219 19.5015 68.0285 19.5603 68.4863 19.7596C68.944 19.9588 69.3323 20.2896 69.6018 20.7098C69.8713 21.13 70.0099 21.6209 70 22.12C69.9948 22.4496 69.9247 22.775 69.7937 23.0775C69.6628 23.3801 69.4735 23.6538 69.2367 23.8832C68.9999 24.1126 68.7202 24.293 68.4136 24.4143C68.1071 24.5356 67.7796 24.5953 67.45 24.59Z" fill="white" stroke="white" stroke-miterlimit="10"/>
<path d="M67.5 25.77H67.43C66.7008 25.7561 65.9921 25.5264 65.3934 25.1099C64.7946 24.6934 64.3327 24.1088 64.066 23.43C63.7993 22.7512 63.7398 22.0085 63.8949 21.2959C64.05 20.5832 64.4128 19.9325 64.9376 19.426C65.4623 18.9194 66.1253 18.5797 66.843 18.4497C67.5607 18.3198 68.3007 18.4054 68.9698 18.6958C69.6388 18.9862 70.2068 19.4684 70.6019 20.0814C70.9971 20.6944 71.2017 21.4108 71.19 22.14C71.1717 23.1074 70.7752 24.0291 70.0854 24.7077C69.3957 25.3862 68.4676 25.7676 67.5 25.77ZM67.5 23.41C67.6837 23.4266 67.8688 23.402 68.0418 23.338C68.2148 23.274 68.3713 23.1722 68.5 23.04C68.629 22.9197 68.7319 22.7742 68.8024 22.6125C68.873 22.4508 68.9096 22.2764 68.91 22.1C68.9213 21.9168 68.8942 21.7332 68.8305 21.561C68.7668 21.3888 68.6678 21.2318 68.54 21.1C68.3562 20.911 68.1206 20.7805 67.8629 20.7247C67.6052 20.669 67.3368 20.6905 67.0913 20.7866C66.8457 20.8827 66.634 21.049 66.4826 21.2649C66.3312 21.4807 66.2468 21.7364 66.24 22C66.236 22.1755 66.2668 22.3501 66.3306 22.5136C66.3944 22.6771 66.49 22.8264 66.6118 22.9528C66.7336 23.0793 66.8792 23.1803 67.0402 23.2502C67.2012 23.3201 67.3745 23.3574 67.55 23.36L67.5 23.41Z" fill="white" stroke="white" stroke-miterlimit="10"/>
<path d="M45.52 39.57C45.0217 39.562 44.5369 39.4065 44.127 39.123C43.7171 38.8396 43.4004 38.4409 43.217 37.9775C43.0337 37.5141 42.9918 37.0067 43.0968 36.5195C43.2018 36.0323 43.4489 35.5871 43.8069 35.2404C44.1648 34.8936 44.6176 34.6608 45.1079 34.5713C45.5982 34.4818 46.104 34.5397 46.5613 34.7377C47.0187 34.9357 47.4071 35.2648 47.6774 35.6835C47.9477 36.1022 48.0878 36.5917 48.08 37.09C48.0761 37.4213 48.0066 37.7486 47.8756 38.053C47.7446 38.3573 47.5546 38.6327 47.3166 38.8633C47.0786 39.0939 46.7973 39.275 46.4889 39.3963C46.1806 39.5176 45.8513 39.5766 45.52 39.57Z" fill="white" stroke="white" stroke-miterlimit="10"/>
<path d="M45.57 40.74H45.5C45.0154 40.7315 44.5373 40.6276 44.0929 40.4343C43.6484 40.2409 43.2464 39.962 42.9098 39.6133C42.23 38.9091 41.8578 37.9637 41.875 36.985C41.8923 36.0064 42.2976 35.0746 43.0018 34.3948C43.706 33.715 44.6514 33.3428 45.63 33.36C46.1145 33.3655 46.593 33.4673 47.0376 33.6596C47.4823 33.8519 47.8842 34.1308 48.22 34.48C48.5586 34.8288 48.8249 35.241 49.0037 35.6929C49.1824 36.1449 49.2702 36.6277 49.2618 37.1137C49.2535 37.5997 49.1492 38.0792 48.9549 38.5248C48.7607 38.9703 48.4804 39.3731 48.13 39.71C47.4444 40.3751 46.5253 40.7449 45.57 40.74ZM45.57 35.74C45.2229 35.7433 44.8902 35.8793 44.64 36.12C44.4505 36.3045 44.3198 36.5409 44.2644 36.7995C44.209 37.0581 44.2314 37.3273 44.3287 37.5732C44.426 37.8191 44.5938 38.0308 44.8112 38.1815C45.0285 38.3321 45.2856 38.4151 45.55 38.42C45.7341 38.4306 45.9183 38.4022 46.0906 38.3367C46.2629 38.2713 46.4195 38.1701 46.55 38.04C46.6772 37.9183 46.7789 37.7725 46.8493 37.6111C46.9196 37.4498 46.9573 37.276 46.96 37.1C46.964 36.9245 46.9332 36.75 46.8694 36.5864C46.8056 36.4229 46.71 36.2736 46.5883 36.1472C46.4665 36.0208 46.3209 35.9197 46.1598 35.8498C45.9988 35.7799 45.8255 35.7426 45.65 35.74H45.57Z" fill="white" stroke="white" stroke-miterlimit="10"/>
<path d="M35.14 34.09C34.6417 34.082 34.1569 33.9265 33.747 33.643C33.3371 33.3595 33.0205 32.9609 32.8371 32.4975C32.6537 32.034 32.6119 31.5267 32.7169 31.0395C32.8219 30.5523 33.069 30.1071 33.4269 29.7604C33.7849 29.4136 34.2376 29.1807 34.7279 29.0913C35.2182 29.0018 35.724 29.0597 36.1814 29.2577C36.6388 29.4557 37.0272 29.7848 37.2975 30.2035C37.5678 30.6222 37.7079 31.1117 37.7 31.61C37.6948 31.9409 37.6245 32.2676 37.493 32.5714C37.3615 32.8751 37.1715 33.15 36.9337 33.3803C36.696 33.6106 36.4153 33.7918 36.1075 33.9136C35.7997 34.0353 35.471 34.0953 35.14 34.09Z" fill="white" stroke="white" stroke-miterlimit="10"/>
<path d="M35.19 35.26H35.12C34.6354 35.2515 34.1573 35.1476 33.7129 34.9542C33.2684 34.7609 32.8664 34.4819 32.5298 34.1333C32.1932 33.7846 31.9286 33.373 31.751 32.922C31.5735 32.4711 31.4865 31.9896 31.495 31.505C31.5036 31.0204 31.6075 30.5423 31.8008 30.0978C31.9941 29.6534 32.2731 29.2514 32.6218 28.9148C32.9704 28.5782 33.382 28.3136 33.833 28.136C34.2839 27.9585 34.7654 27.8715 35.25 27.88C35.7348 27.8832 36.214 27.984 36.659 28.1765C37.104 28.3689 37.5056 28.649 37.84 29C38.1724 29.3504 38.432 29.7633 38.6036 30.2148C38.7753 30.6662 38.8556 31.1473 38.84 31.63C38.8244 32.5913 38.4343 33.5086 37.7525 34.1866C37.0708 34.8646 36.1514 35.2497 35.19 35.26ZM35.19 32.91C35.5402 32.9074 35.8755 32.7678 36.1241 32.5211C36.3727 32.2744 36.5148 31.9402 36.52 31.59C36.5319 31.4067 36.5051 31.2229 36.4414 31.0506C36.3776 30.8784 36.2784 30.7214 36.15 30.59C35.901 30.3377 35.5644 30.1908 35.21 30.18C35.026 30.17 34.842 30.1987 34.6698 30.2642C34.4976 30.3296 34.341 30.4304 34.21 30.56C34.021 30.7439 33.8905 30.9794 33.8347 31.2371C33.779 31.4948 33.8005 31.7632 33.8966 32.0087C33.9927 32.2543 34.159 32.466 34.3749 32.6174C34.5907 32.7688 34.8464 32.8532 35.11 32.86L35.19 32.91Z" fill="white" stroke="white" stroke-miterlimit="10"/>
<path d="M24.77 28.61C24.2712 28.604 23.7855 28.4501 23.3742 28.1678C22.963 27.8855 22.6447 27.4876 22.4598 27.0243C22.275 26.561 22.2317 26.0533 22.3356 25.5654C22.4395 25.0775 22.6858 24.6314 23.0434 24.2837C23.401 23.9359 23.8537 23.7021 24.3443 23.6118C24.8349 23.5215 25.3412 23.5789 25.7992 23.7766C26.2571 23.9743 26.6461 24.3035 26.9169 24.7224C27.1876 25.1414 27.3279 25.6313 27.32 26.13C27.3161 26.4605 27.247 26.7869 27.1166 27.0906C26.9862 27.3943 26.7971 27.6693 26.5602 27.8997C26.3232 28.1301 26.0431 28.3115 25.7359 28.4334C25.4287 28.5553 25.1005 28.6153 24.77 28.61Z" fill="white" stroke="white" stroke-miterlimit="10"/>
<path d="M24.81 29.78H24.75C24.0203 29.7659 23.311 29.5363 22.7114 29.1201C22.1119 28.7038 21.6488 28.1196 21.3805 27.4408C21.1122 26.762 21.0507 26.0191 21.2036 25.3054C21.3565 24.5917 21.7171 23.9392 22.24 23.43C22.9553 22.7706 23.8973 22.4125 24.87 22.43C25.5998 22.4441 26.309 22.6737 26.9086 23.0899C27.5082 23.5062 27.9712 24.0904 28.2395 24.7692C28.5078 25.448 28.5694 26.1909 28.4164 26.9046C28.2635 27.6183 27.9029 28.2708 27.38 28.78C26.6848 29.4329 25.7637 29.7913 24.81 29.78ZM24.81 27.43C24.9858 27.4336 25.1604 27.4019 25.3237 27.3366C25.4869 27.2713 25.6353 27.1738 25.76 27.05C25.8872 26.9282 25.9889 26.7825 26.0593 26.6211C26.1296 26.4597 26.1673 26.286 26.17 26.11C26.1727 25.7554 26.0358 25.4139 25.7888 25.1594C25.5418 24.9049 25.2046 24.7579 24.85 24.75C24.4954 24.7473 24.1539 24.8842 23.8994 25.1312C23.645 25.3782 23.4979 25.7154 23.49 26.07C23.4825 26.2537 23.5123 26.437 23.5776 26.6089C23.6429 26.7808 23.7424 26.9377 23.87 27.07C23.9918 27.1971 24.1376 27.2989 24.2989 27.3692C24.4603 27.4396 24.634 27.4773 24.81 27.48V27.43Z" fill="white" stroke="white" stroke-miterlimit="10"/>
<path d="M36.48 56.69C35.9795 56.6899 35.4903 56.5408 35.0749 56.2616C34.6595 55.9824 34.3366 55.5858 34.1474 55.1225C33.9583 54.6591 33.9114 54.1498 34.0127 53.6597C34.1141 53.1695 34.3591 52.7207 34.7165 52.3703C35.074 52.02 35.5277 51.784 36.0198 51.6925C36.5118 51.601 37.02 51.6581 37.4795 51.8565C37.939 52.0549 38.329 52.3857 38.5998 52.8066C38.8706 53.2275 39.0099 53.7196 39 54.22C38.9869 54.8796 38.7157 55.5078 38.2445 55.9697C37.7733 56.4315 37.1398 56.6901 36.48 56.69Z" fill="white" stroke="white" stroke-miterlimit="10"/>
<path d="M36.52 57.87H36.46C35.9746 57.8622 35.4954 57.7587 35.0501 57.5653C34.6047 57.372 34.2018 57.0927 33.8646 56.7434C33.5274 56.3941 33.2624 55.9817 33.0849 55.5298C32.9074 55.0779 32.8207 54.5954 32.83 54.11C32.8419 53.622 32.9516 53.1413 33.1526 52.6965C33.3535 52.2516 33.6417 51.8515 34 51.52C34.7148 50.8598 35.6572 50.5014 36.63 50.52C37.5768 50.5764 38.4657 50.9942 39.1133 51.6871C39.7609 52.38 40.1177 53.2951 40.11 54.2435C40.1023 55.1919 39.7307 56.1011 39.0719 56.7834C38.4132 57.4657 37.5175 57.869 36.57 57.91L36.52 57.87ZM36.52 55.51C36.8541 55.4811 37.1653 55.3279 37.3919 55.0807C37.6186 54.8336 37.7444 54.5104 37.7444 54.175C37.7444 53.8396 37.6186 53.5165 37.3919 53.2693C37.1653 53.0221 36.8541 52.8689 36.52 52.84C36.3442 52.8358 36.1694 52.8673 36.0061 52.9326C35.8428 52.9979 35.6944 53.0957 35.57 53.22C35.4432 53.3399 35.3416 53.4839 35.2712 53.6436C35.2007 53.8033 35.163 53.9755 35.16 54.15C35.153 54.3337 35.1831 54.5168 35.2484 54.6886C35.3137 54.8604 35.4128 55.0173 35.54 55.15C35.6623 55.2758 35.8084 55.3759 35.9698 55.4446C36.1311 55.5133 36.3046 55.5491 36.48 55.55L36.52 55.51Z" fill="white" stroke="white" stroke-miterlimit="10"/>
<path d="M26.1 51.21C25.6013 51.202 25.1161 51.0461 24.706 50.7622C24.2959 50.4783 23.9793 50.079 23.7963 49.615C23.6132 49.151 23.572 48.6431 23.6779 48.1557C23.7837 47.6682 24.0318 47.2232 24.3907 46.8768C24.7497 46.5305 25.2034 46.2985 25.6943 46.2101C26.1852 46.1218 26.6913 46.1812 27.1484 46.3807C27.6056 46.5802 27.9933 46.9109 28.2624 47.3309C28.5314 47.7509 28.6698 48.2413 28.66 48.74C28.6548 49.0705 28.5844 49.3967 28.4528 49.6999C28.3212 50.0031 28.131 50.2773 27.8931 50.5068C27.6552 50.7363 27.3744 50.9166 27.0667 51.0372C26.759 51.1579 26.4305 51.2166 26.1 51.21Z" fill="white" stroke="white" stroke-miterlimit="10"/>
<path d="M26.15 52.39H26.08C25.3404 52.387 24.6187 52.1617 24.0086 51.7434C23.3986 51.3252 22.9283 50.7333 22.6588 50.0445C22.3893 49.3556 22.333 48.6017 22.4973 47.8805C22.6616 47.1593 23.0388 46.5041 23.58 46C24.1047 45.4904 24.769 45.1483 25.4886 45.0171C26.2081 44.8858 26.9504 44.9714 27.6212 45.2628C28.2921 45.5543 28.8611 46.0386 29.2562 46.6541C29.6512 47.2697 29.8544 47.9887 29.84 48.72C29.8217 49.6874 29.4252 50.6091 28.7354 51.2877C28.0457 51.9662 27.1176 52.3475 26.15 52.35V52.39ZM26.15 47.39C25.8007 47.3899 25.4654 47.5273 25.2166 47.7724C24.9677 48.0176 24.8253 48.3507 24.82 48.7C24.8252 49.0432 24.9638 49.3708 25.2065 49.6135C25.4492 49.8562 25.7768 49.9948 26.12 50C26.3036 50.0152 26.4883 49.9899 26.6611 49.926C26.8339 49.8621 26.9905 49.761 27.12 49.63C27.309 49.4461 27.4395 49.2106 27.4953 48.9529C27.551 48.6952 27.5295 48.4268 27.4335 48.1812C27.3374 47.9357 27.171 47.724 26.9552 47.5726C26.7393 47.4211 26.4836 47.3368 26.22 47.33L26.15 47.39Z" fill="white" stroke="white" stroke-miterlimit="10"/>
<path d="M15.72 45.73C15.2213 45.722 14.7361 45.5662 14.326 45.2822C13.9159 44.9983 13.5993 44.599 13.4163 44.135C13.2332 43.671 13.192 43.1631 13.2978 42.6757C13.4037 42.1883 13.6518 41.7432 14.0107 41.3968C14.3697 41.0505 14.8234 40.8185 15.3143 40.7302C15.8052 40.6418 16.3113 40.7012 16.7684 40.9007C17.2256 41.1002 17.6133 41.4309 17.8824 41.8509C18.1514 42.2709 18.2898 42.7613 18.28 43.26C18.2748 43.5905 18.2044 43.9167 18.0728 44.2199C17.9412 44.5231 17.751 44.7973 17.5131 45.0268C17.2752 45.2563 16.9944 45.4366 16.6867 45.5573C16.379 45.6779 16.0505 45.7366 15.72 45.73Z" fill="white" stroke="white" stroke-miterlimit="10"/>
<path d="M15.77 46.91H15.7C14.7522 46.8468 13.8649 46.4215 13.222 45.7222C12.5791 45.0228 12.2298 44.1029 12.2465 43.1531C12.2633 42.2033 12.6447 41.2963 13.3118 40.6199C13.9788 39.9436 14.8805 39.5498 15.83 39.52C16.7768 39.5764 17.6657 39.9941 18.3133 40.687C18.9609 41.38 19.3177 42.2951 19.31 43.2435C19.3023 44.1919 18.9307 45.1011 18.2719 45.7834C17.6132 46.4657 16.7176 46.869 15.77 46.91ZM15.77 41.91C15.4198 41.9099 15.0834 42.047 14.833 42.2918C14.5825 42.5366 14.4379 42.8698 14.43 43.22C14.4212 43.403 14.4494 43.5859 14.5129 43.7578C14.5765 43.9296 14.6742 44.0868 14.8 44.22C15.0483 44.4722 15.3862 44.616 15.74 44.62C15.924 44.6403 16.1102 44.6175 16.2838 44.5533C16.4574 44.489 16.6136 44.3852 16.74 44.25C16.9898 43.9989 17.13 43.6591 17.13 43.305C17.13 42.9508 16.9898 42.6111 16.74 42.36C16.6183 42.2328 16.4725 42.1311 16.3111 42.0607C16.1498 41.9904 15.9761 41.9527 15.8 41.95L15.77 41.91Z" fill="white" stroke="white" stroke-miterlimit="10"/>
</svg>
